<?xml version="1.0" standalone="no"?>
<!DOCTYPE svg PUBLIC "-//W3C//DTD SVG 20010904//EN"
 "http://www.w3.org/TR/2001/REC-SVG-20010904/DTD/svg10.dtd">
<svg version="1.0" xmlns="http://www.w3.org/2000/svg"
 width="1280.000000pt" height="597.000000pt" viewBox="0 0 1280.000000 597.000000"
 preserveAspectRatio="xMidYMid meet">

<g transform="translate(0.000000,597.000000) scale(0.100000,-0.100000)"
fill="#000000" stroke="none">
<path d="M0 3435 c0 -2407 1 -2535 18 -2536 9 0 226 -3 482 -5 256 -2 605 -8
775 -14 929 -31 1383 -49 1775 -70 102 -5 250 -12 330 -15 165 -6 217 -12 226
-27 3 -5 -18 -32 -47 -58 -30 -27 -55 -54 -55 -60 -1 -5 -2 -14 -3 -20 0 -5
-8 -10 -17 -10 -8 0 -13 4 -10 9 9 15 -157 35 -374 46 -63 3 -137 8 -165 10
-27 3 -156 7 -285 10 -129 3 -372 12 -540 20 -168 8 -413 19 -545 25 -132 6
-253 12 -270 15 -16 3 -42 7 -57 9 -16 3 -28 0 -28 -5 0 -6 -3 -8 -7 -6 -5 3
-186 7 -403 11 -217 3 -486 9 -597 12 l-203 7 0 -392 0 -391 2479 0 c2194 0
2480 2 2485 15 3 8 10 15 15 15 5 0 23 13 40 29 78 73 239 171 476 289 137 69
224 131 196 140 -17 6 -13 22 7 22 14 0 15 2 2 10 -9 6 -17 5 -22 -3 -4 -7 -8
-8 -8 -3 0 5 -9 1 -21 -10 -12 -10 -22 -17 -24 -14 -2 3 -16 -7 -33 -22 -57
-50 -82 -55 -82 -16 0 25 -17 23 -56 -7 -35 -27 -54 -32 -54 -14 0 15 172 179
188 179 7 0 15 6 18 14 3 8 11 13 18 10 7 -3 15 13 22 41 10 43 9 45 -10 39
-39 -12 -156 -74 -156 -83 0 -4 -15 -12 -32 -17 -18 -6 -39 -21 -46 -34 l-13
-25 3 30 c3 25 14 35 71 68 45 26 67 45 67 57 0 24 88 120 154 167 28 20 74
57 101 83 45 42 199 140 220 140 5 0 19 9 31 21 16 15 39 21 90 25 107 6 138
16 142 42 4 28 -14 52 -39 52 -10 0 -34 -14 -54 -31 -44 -39 -56 -34 -15 6 28
27 29 29 15 61 -13 31 -12 34 3 34 12 0 10 4 -7 13 -42 21 -44 58 -5 102 18
22 35 37 37 35 2 -3 12 -26 21 -51 17 -44 17 -47 -4 -98 l-21 -54 32 7 c18 3
51 24 75 46 48 44 61 47 105 25 25 -13 54 -14 192 -7 183 9 166 13 392 -73 83
-32 204 -75 269 -97 154 -51 181 -65 165 -84 -10 -12 -14 -11 -29 6 -21 24
-90 55 -90 40 0 -5 6 -10 14 -10 7 0 19 -7 26 -15 27 -32 103 -76 119 -69 9 4
30 8 46 8 23 1 31 6 33 24 3 21 5 21 25 7 12 -8 36 -15 54 -15 32 0 46 -21 23
-35 -6 -4 -7 -13 -2 -23 5 -9 7 -36 4 -60 -3 -35 -7 -42 -21 -37 -9 4 -39 10
-66 14 -37 5 -66 19 -108 50 -32 23 -61 49 -64 57 -3 8 -12 14 -21 14 -8 0
-13 3 -9 6 6 6 -20 28 -88 74 -16 11 -39 19 -50 18 -11 -1 -34 7 -50 19 -43
30 -143 83 -158 83 -6 0 22 -22 63 -48 41 -27 102 -70 135 -97 82 -67 199
-184 191 -192 -3 -4 -20 7 -38 23 -28 26 -29 26 -15 4 22 -32 21 -40 -4 -40
-17 0 -120 78 -159 120 -15 16 -62 40 -79 40 -11 0 -23 5 -26 10 -9 15 -25 12
-25 -4 0 -7 18 -30 40 -50 22 -20 40 -38 40 -40 0 -3 14 -20 31 -38 55 -60 55
-64 -9 -81 -31 -9 -79 -19 -107 -23 -27 -4 -55 -14 -61 -23 -10 -13 -17 -12
-52 13 -22 15 -43 34 -46 42 -3 9 -11 12 -17 8 -6 -3 -15 0 -20 7 -4 7 -11 11
-14 7 -3 -3 16 -35 42 -71 39 -52 52 -64 70 -60 15 3 23 -1 28 -16 3 -11 3
-26 0 -31 -14 -23 0 -32 290 -185 180 -95 241 -128 287 -157 l47 -30 -5 -126
c-3 -70 -5 -134 -6 -142 -4 -52 -9 -50 157 -50 l155 0 0 30 c0 56 40 665 45
688 3 14 13 22 26 22 11 0 199 -23 417 -50 265 -34 402 -55 411 -65 12 -11 12
-51 2 -257 -6 -134 -14 -271 -17 -305 l-6 -63 171 0 171 0 0 38 c0 20 5 116
10 212 5 96 12 229 16 295 7 130 14 155 45 155 27 0 151 42 166 57 10 9 10 13
-1 22 -10 8 -33 5 -90 -14 -127 -41 -120 -49 -112 114 l7 138 -38 6 c-21 3
-68 9 -105 13 -45 4 -69 11 -73 21 -4 12 -9 13 -19 4 -13 -11 -34 -10 -256 14
-57 6 -243 28 -520 61 -118 14 -264 30 -325 36 -104 10 -164 23 -153 33 2 3
42 0 89 -5 46 -6 192 -21 324 -35 132 -14 262 -28 289 -31 38 -6 47 -4 42 5
-5 7 0 18 10 26 22 16 11 20 -15 5 -16 -8 -20 -5 -24 18 -3 15 -13 45 -23 67
-14 35 -18 37 -24 20 -4 -11 -3 -33 1 -50 13 -43 11 -58 -5 -52 -7 3 -18 1
-24 -5 -6 -6 -27 -7 -49 -3 -32 5 -44 14 -64 45 -28 45 -57 60 -71 36 -13 -22
-27 -20 -37 7 -6 15 -28 30 -67 45 -107 42 -172 79 -230 130 -19 17 -50 36
-68 43 -19 7 -41 26 -51 43 -10 17 -27 40 -38 50 -17 17 -19 28 -14 88 7 87
32 132 73 136 16 2 88 -15 159 -38 72 -22 237 -63 369 -90 131 -28 248 -56
260 -62 29 -16 145 -117 239 -210 43 -43 87 -78 98 -78 24 0 24 6 -5 56 -13
23 -27 63 -30 90 -4 27 -21 70 -37 95 -16 25 -29 49 -29 54 0 4 11 31 24 60
21 42 23 58 16 90 -5 22 -13 41 -19 43 -29 10 -59 43 -54 62 3 11 10 17 16 13
6 -3 7 -1 3 5 -4 7 3 52 15 100 l21 89 -20 46 c-12 27 -17 49 -11 52 5 4 9 16
9 28 0 18 2 19 10 7 5 -8 10 -30 10 -48 0 -38 25 -92 43 -92 11 0 89 -75 248
-239 68 -71 71 -75 51 -84 -12 -6 -22 -18 -22 -28 0 -28 -11 -49 -22 -43 -6 4
-8 -3 -4 -17 3 -13 3 -18 0 -11 -11 24 -22 12 -28 -32 -6 -41 -35 -96 -36 -68
0 6 -5 12 -11 12 -5 0 -7 -5 -4 -10 4 -6 -1 -29 -10 -53 -8 -23 -17 -60 -19
-81 -1 -22 -8 -42 -14 -44 -7 -2 -12 -12 -12 -23 0 -22 -19 -25 -40 -6 -12 10
-12 9 0 -6 9 -12 22 -17 37 -14 13 2 23 0 23 -4 0 -5 -8 -9 -17 -10 -26 -1 77
-37 107 -38 14 0 34 6 44 14 14 10 45 15 100 15 95 0 165 -27 210 -81 25 -29
28 -39 24 -84 -2 -28 -11 -65 -20 -82 l-16 -32 34 -11 c19 -7 34 -14 34 -16 0
-2 -8 -31 -17 -65 -16 -59 -16 -60 4 -81 12 -12 28 -18 37 -15 13 5 67 96 66
112 0 3 0 9 0 15 0 5 31 18 68 30 64 18 76 27 157 109 48 49 95 101 105 116
l17 26 20 -33 c31 -53 184 -462 186 -498 0 -8 -3 -58 -7 -111 -5 -74 -4 -98 6
-106 12 -9 234 -71 290 -80 l27 -5 3 98 3 99 52 0 52 0 -6 -115 -6 -116 79
-23 c137 -40 458 -142 479 -151 11 -5 58 -23 105 -39 47 -16 139 -51 205 -76
66 -26 130 -49 143 -52 12 -3 25 -9 28 -14 3 -5 285 -9 640 -9 l634 0 0 805
c0 637 -3 805 -12 805 -17 0 -86 -24 -94 -33 -12 -12 -52 -8 -56 5 -3 9 -16 4
-41 -15 -28 -21 -47 -27 -85 -27 -39 0 -53 -5 -72 -25 -19 -20 -33 -25 -72
-25 -36 0 -48 -4 -48 -15 0 -11 -11 -15 -40 -15 -22 0 -40 -4 -40 -10 0 -5
-18 -10 -40 -10 -29 0 -40 -4 -40 -15 0 -11 -11 -15 -40 -15 l-40 0 0 55 0 55
-40 0 c-23 0 -40 5 -40 11 0 8 -5 8 -15 -1 -8 -7 -15 -19 -15 -26 0 -8 -4 -14
-10 -14 -5 0 -10 -18 -10 -40 0 -29 -4 -40 -15 -40 -8 0 -15 -6 -15 -12 -1 -7
-19 -26 -40 -43 -24 -19 -39 -38 -40 -52 0 -20 -5 -23 -40 -23 l-40 0 0 -55
c0 -52 -1 -55 -25 -55 -22 0 -25 -4 -25 -40 0 -36 -2 -40 -25 -40 -22 0 -25
-4 -25 -40 0 -38 -2 -40 -30 -40 -20 0 -30 5 -30 15 0 11 -11 15 -40 15 -38 0
-40 -2 -40 -30 l0 -30 88 0 c81 0 90 -2 112 -25 19 -20 33 -25 72 -25 l48 0 0
-40 0 -40 -40 0 c-29 0 -40 -4 -40 -15 0 -11 11 -15 40 -15 29 0 40 4 40 15 0
8 7 15 15 15 11 0 15 -11 15 -35 0 -20 7 -47 16 -60 20 -30 10 -47 -22 -39
-18 5 -24 2 -24 -10 0 -11 -9 -16 -29 -16 -22 0 -32 -7 -41 -27 -12 -27 -14
-28 -87 -25 -53 3 -80 -1 -96 -11 -13 -8 -32 -17 -42 -20 -11 -4 -3 -5 18 -4
21 2 37 -2 37 -8 0 -6 -29 -10 -73 -11 -39 0 -84 -4 -99 -8 -23 -7 -28 -5 -28
9 0 12 6 16 20 12 11 -3 20 -1 20 4 0 5 -9 9 -19 9 -21 0 -35 38 -25 64 3 9 2
16 -4 16 -12 0 -21 -76 -10 -92 3 -7 4 -16 1 -21 -5 -9 -138 -3 -323 14 -58 5
-108 9 -112 9 -5 0 -8 4 -8 8 0 4 30 7 68 5 47 -2 61 0 47 6 -11 5 -34 10 -52
10 -39 1 -86 18 -79 29 3 5 -3 44 -14 88 -10 43 -21 96 -25 117 -6 35 -8 37
-45 37 -29 0 -40 4 -40 15 0 11 -12 15 -49 15 l-48 0 -6 58 c-4 31 -9 121 -13
200 -4 78 -11 142 -15 142 -5 0 -9 18 -9 40 0 29 -4 40 -15 40 -11 0 -15 -12
-16 -42 -1 -30 -4 -19 -9 32 -4 41 -6 86 -4 100 4 22 3 23 -5 5 -9 -19 -10
-19 -10 3 -1 12 -5 22 -11 22 -15 0 -12 -38 3 -43 9 -3 9 -8 -2 -21 -8 -9 -15
-33 -17 -54 -2 -20 -8 -75 -13 -122 -6 -47 -16 -155 -22 -240 -6 -85 -14 -175
-18 -201 -4 -26 -4 -54 1 -62 13 -25 -9 -30 -29 -7 -10 11 -30 20 -46 20 -16
0 -57 7 -91 17 -34 9 -94 16 -138 15 -44 -1 -80 3 -84 9 -4 7 9 8 39 4 44 -7
45 -6 44 19 -2 28 -21 35 -31 11 -8 -21 -63 -19 -74 3 -5 9 -13 40 -17 67 -3
28 -15 83 -26 122 -10 40 -19 82 -19 94 0 23 28 78 48 94 7 6 14 42 17 91 4
75 3 83 -23 119 -20 29 -24 39 -13 43 7 2 27 17 44 32 l31 28 -1 105 c-1 86
-6 117 -28 173 -44 118 -67 155 -120 196 -27 22 -63 51 -78 65 -16 15 -43 34
-60 42 -29 14 -33 22 -37 70 -7 67 -32 91 -95 91 -35 0 -45 4 -50 20 -10 30
-90 30 -143 -1 -18 -10 -37 -19 -41 -19 -24 0 -281 -163 -281 -178 0 -17 -81
-103 -118 -124 -27 -16 -31 -16 -36 -2 -3 8 -2 12 4 9 18 -11 10 10 -10 28
-11 9 -20 23 -20 31 0 8 -13 26 -30 39 -16 14 -30 30 -30 35 0 5 -7 15 -15 22
-13 11 -15 10 -9 -6 4 -14 3 -16 -4 -5 -5 8 -16 10 -23 6 -8 -4 18 24 56 61
224 219 371 314 485 314 54 0 60 -2 80 -30 18 -25 25 -29 37 -19 42 36 61 147
67 410 2 90 2 142 0 114 -23 -292 -36 -430 -41 -435 -3 -3 -3 31 1 75 4 44 13
202 20 350 13 263 13 270 -6 287 -11 10 -34 20 -51 23 -18 3 -234 12 -482 20
-247 8 -472 19 -500 24 -27 6 -108 18 -179 26 -90 10 -135 19 -150 32 -53 43
-169 171 -181 201 -17 39 -36 48 -74 33 -20 -9 -40 -9 -72 -2 -24 5 -74 12
-111 14 l-68 5 0 -77 c-1 -75 -1 -77 -43 -123 -46 -52 -106 -77 -101 -41 4 32
16 63 24 63 5 0 11 13 15 30 4 16 11 32 16 35 5 4 9 25 9 48 -1 38 -2 40 -15
23 -7 -10 -19 -15 -25 -11 -6 4 -29 -5 -51 -20 -35 -25 -45 -27 -94 -22 -30 3
-60 9 -67 13 -7 4 -31 9 -53 10 -23 1 -58 7 -78 13 -32 11 -35 15 -25 31 7 10
20 21 30 23 10 3 18 14 18 26 0 15 6 21 22 21 35 0 88 23 88 38 0 10 -7 12
-23 8 -16 -4 -31 2 -50 19 -14 14 -35 25 -46 25 -11 0 -22 4 -25 9 -10 16 183
25 248 12 32 -7 59 -11 61 -9 1 2 -1 13 -6 26 -7 18 -16 23 -36 21 -16 -1 -37
2 -47 6 -13 6 -21 4 -24 -3 -3 -9 -12 -8 -37 2 -40 17 -136 13 -185 -8 -19 -8
-48 -12 -64 -9 -21 4 -27 3 -21 -6 5 -9 1 -9 -15 1 -18 10 -24 10 -27 1 -7
-19 -20 -16 -26 7 -3 11 -13 20 -24 20 -17 1 -63 32 -63 44 0 11 47 30 109 43
67 14 80 10 81 -26 0 -11 9 -12 43 -6 23 4 62 7 86 6 34 -1 49 4 65 21 12 12
20 26 18 30 -1 5 5 8 13 8 8 0 15 -4 15 -10 0 -5 14 -10 30 -10 35 0 38 12 10
40 -32 32 -75 24 -92 -19 l-11 -26 -6 30 c-3 17 -8 28 -11 26 -3 -2 -22 2 -44
9 -24 8 -41 9 -45 3 -6 -10 -45 -33 -55 -33 -13 0 -5 38 9 44 19 7 75 94 75
117 0 42 62 49 75 8 8 -25 62 -75 96 -89 15 -6 30 -23 35 -38 9 -26 12 -27 59
-22 47 6 48 6 20 14 -57 15 -60 19 -15 26 96 15 140 56 148 141 3 32 9 49 18
49 19 0 30 -27 37 -89 4 -29 11 -59 17 -66 7 -8 8 -28 4 -52 l-7 -38 27 24
c14 14 26 30 26 37 0 22 -23 64 -32 58 -16 -10 -19 24 -5 59 14 32 50 57 64
43 4 -3 -2 -6 -12 -6 -15 0 -17 -6 -11 -46 3 -26 6 -56 7 -68 0 -21 1 -21 10
-1 7 15 8 10 4 -17 -5 -30 -3 -38 10 -38 10 0 15 7 13 18 -2 11 4 18 20 20 27
4 28 11 5 28 -15 10 -16 15 -5 25 10 11 12 11 12 0 0 -7 5 -11 12 -9 7 3 13
24 15 48 3 52 6 55 31 41 14 -7 24 -7 38 4 18 13 18 14 -4 37 -23 26 -29 53
-12 63 16 10 11 36 -13 69 -15 20 -26 52 -31 89 -3 31 -13 76 -22 100 -9 23
-23 62 -32 87 -22 63 -82 149 -142 203 -30 28 -50 53 -48 63 2 12 -4 17 -24
18 -15 1 -35 9 -46 19 -10 9 -27 17 -38 17 -11 0 -31 13 -44 30 -19 22 -34 29
-62 30 -20 0 -38 5 -40 11 -2 6 -24 13 -48 14 -25 1 -63 9 -86 18 -52 20 -150
34 -141 20 4 -6 -3 -8 -18 -5 -14 2 -25 0 -25 -5 0 -6 -50 -39 -111 -74 -127
-73 -174 -110 -215 -171 -16 -24 -43 -60 -60 -80 -17 -21 -36 -55 -42 -75 -6
-21 -24 -82 -41 -136 -20 -63 -31 -119 -31 -156 0 -44 -6 -70 -25 -102 -17
-31 -21 -45 -12 -51 6 -4 11 -25 10 -48 -2 -37 0 -40 14 -28 15 11 16 11 10
-5 -4 -11 -1 -20 8 -23 8 -3 20 -21 27 -39 6 -19 15 -32 20 -29 4 3 10 -7 14
-21 3 -14 15 -31 25 -39 10 -7 25 -29 34 -49 8 -20 28 -58 45 -84 16 -26 30
-55 30 -65 0 -19 28 -38 58 -38 13 0 25 -16 42 -57 13 -32 36 -74 52 -94 15
-20 28 -41 28 -46 0 -6 -42 -9 -97 -7 -81 1 -103 -2 -129 -17 -24 -14 -53 -19
-120 -21 l-89 -2 79 -5 78 -6 -21 -20 c-21 -18 -36 -19 -289 -16 -147 1 -264
0 -261 -3 3 -3 86 -6 185 -6 98 0 213 -4 254 -8 l75 -6 -72 -7 c-39 -4 -76
-10 -82 -13 -6 -4 -11 -34 -11 -67 0 -46 3 -59 15 -59 13 0 14 -4 5 -20 -6
-11 -21 -20 -35 -20 -31 0 -147 -27 -183 -42 -15 -7 -47 -27 -71 -45 -24 -18
-50 -33 -57 -33 -25 0 -84 -66 -84 -94 0 -15 -7 -29 -15 -32 -8 -4 -15 -18
-15 -32 0 -25 -9 -58 -36 -132 -6 -20 -15 -58 -19 -85 -5 -29 -18 -62 -31 -78
-27 -32 -29 -40 -13 -66 8 -12 9 -24 2 -35 -8 -14 -14 -4 -36 51 -14 37 -46
120 -70 183 -25 63 -66 174 -91 245 -26 72 -51 139 -56 150 -17 38 -32 96 -26
102 7 7 199 -57 207 -69 3 -5 52 -15 108 -21 77 -8 115 -8 159 1 32 7 68 12
80 12 26 0 27 6 7 27 -8 8 -13 19 -10 24 4 5 -2 9 -12 10 -10 0 -3 5 16 10 18
6 30 13 27 16 -6 6 -68 19 -146 29 -25 4 -51 11 -57 16 -8 6 -28 7 -50 2 -21
-4 -40 -7 -43 -7 -27 4 -124 13 -207 19 -84 6 -103 4 -103 -7 0 -7 -8 2 -19
21 -17 32 -17 36 -2 57 9 12 25 23 36 25 11 2 -7 4 -40 5 -33 1 -123 7 -200
13 -77 7 -188 13 -247 15 -120 3 -131 -2 -141 -65 -3 -19 -7 -42 -9 -50 -2
-10 6 -16 24 -18 21 -3 28 -10 34 -35 3 -18 29 -88 56 -157 50 -125 145 -375
199 -525 32 -89 37 -122 9 -59 -18 40 -20 42 -69 45 -47 4 -51 2 -62 -24 -23
-54 17 -126 79 -143 12 -3 22 -10 22 -15 0 -5 15 -9 33 -9 18 0 39 -6 46 -13
11 -10 12 -7 7 18 -9 38 6 22 24 -25 8 -19 24 -58 37 -87 22 -50 70 -174 100
-258 7 -22 31 -83 52 -135 94 -231 119 -304 111 -325 -5 -11 -13 -19 -20 -17
-6 1 -9 -2 -5 -8 4 -6 -9 -43 -28 -83 -44 -90 -139 -290 -203 -426 l-49 -103
-125 5 -125 5 118 -11 c64 -5 117 -13 117 -17 0 -4 -63 -8 -141 -9 -113 -2
-139 1 -133 11 5 10 4 11 -7 0 -22 -20 -397 -12 -384 9 3 4 -5 5 -17 1 -21 -5
-22 -4 -8 13 9 11 10 16 3 11 -18 -10 -16 4 3 25 13 15 18 54 25 185 5 92 6
171 3 175 -3 5 0 161 5 346 24 785 48 2239 56 3401 l6 793 -48 -3 -48 -3 -3
-65 c-3 -80 -9 -101 -22 -80 -6 8 -10 10 -10 5 0 -21 -441 24 -491 50 -15 8
-33 15 -39 15 -6 0 -40 18 -76 40 -96 58 -108 49 -23 -17 41 -32 88 -72 106
-89 19 -19 34 -27 36 -21 8 25 18 -567 18 -1127 1 -410 -3 -592 -10 -599 -6
-6 -11 -18 -11 -26 0 -14 1 -14 10 -1 8 11 9 6 8 -20 -2 -19 -6 -37 -9 -40
-10 -8 -17 -100 -8 -100 5 0 8 -19 8 -42 -1 -24 -4 -33 -6 -20 -6 30 -23 28
-23 -3 0 -18 -8 -29 -27 -38 -37 -16 -63 -39 -63 -54 0 -8 -11 -19 -25 -25
-29 -13 -32 -35 -8 -53 14 -11 13 -15 -16 -43 -18 -17 -30 -35 -27 -41 3 -5
-7 -21 -24 -34 -16 -14 -30 -30 -30 -36 0 -6 -6 -11 -13 -11 -8 0 -22 -18 -33
-40 -10 -22 -22 -40 -26 -40 -5 0 -8 -6 -8 -14 0 -8 -6 -16 -14 -19 -16 -6
-27 -55 -13 -60 6 -2 -28 -13 -74 -26 -78 -21 -95 -23 -241 -16 l-158 7 0 319
c0 215 3 319 10 319 21 0 50 37 48 61 -2 29 32 129 45 129 5 0 6 7 3 16 -6 17
21 104 35 114 4 3 10 25 13 49 3 23 10 49 16 56 8 10 4 16 -19 26 -16 7 -36
25 -45 39 -14 24 -14 29 2 51 9 13 17 41 17 63 1 22 7 42 13 44 7 2 12 12 12
23 0 10 5 39 12 64 15 55 15 54 -88 86 l-72 22 -3 196 c-4 185 4 589 10 546 1
-12 5 -15 8 -7 2 6 12 12 21 12 14 0 102 38 175 75 16 8 35 15 42 15 28 0 35
40 35 204 l0 166 -384 0 -385 0 -4 -22 -4 -23 -2 23 -1 22 -555 0 -554 0 4
-212 c9 -445 17 -602 30 -613 17 -13 166 -285 157 -286 -21 -2 -120 3 -135 7
-9 3 -29 28 -42 55 -14 27 -28 49 -30 49 -3 0 -5 -20 -5 -44 0 -35 4 -45 20
-49 23 -6 27 -27 5 -27 -12 0 -15 -17 -15 -94 l0 -94 33 -6 c17 -3 82 -12 142
-20 61 -9 163 -23 228 -32 132 -18 210 -13 268 17 35 18 57 58 44 79 -4 6 8
10 26 10 25 0 29 -3 20 -13 -8 -10 -7 -19 3 -32 12 -16 12 -22 0 -41 -14 -21
-14 -21 73 -23 48 -1 89 -4 92 -7 10 -10 -12 -16 -81 -24 l-73 -7 70 -3 c60
-1 66 -3 40 -11 -16 -5 -42 -7 -57 -5 -20 4 -30 -1 -42 -18 -14 -22 -14 -24 7
-30 12 -3 34 -6 49 -6 15 0 30 -4 33 -10 4 -6 -5 -10 -21 -10 -54 0 -8 -18 49
-19 17 -1 27 -6 25 -13 -3 -7 -27 -11 -71 -9 -43 2 -67 -2 -67 -8 0 -14 77
-238 87 -254 4 -7 8 -18 9 -24 1 -7 14 -43 27 -80 14 -38 62 -169 107 -293 45
-124 87 -239 94 -255 7 -17 17 -46 21 -65 4 -19 11 -39 14 -45 4 -5 18 -39 30
-75 12 -36 26 -74 32 -85 5 -11 20 -51 33 -90 14 -38 37 -101 51 -140 15 -38
31 -83 36 -100 5 -16 13 -39 18 -50 39 -87 39 -95 2 -95 -20 0 -30 6 -34 19
-4 18 -8 18 -63 5 -33 -7 -74 -14 -91 -14 -30 0 -33 3 -34 33 0 17 -2 41 -4
53 -7 33 58 57 145 56 31 -1 40 2 30 8 -8 5 -17 7 -22 4 -11 -7 -29 33 -91
201 -31 83 -72 193 -92 245 -19 52 -39 104 -44 115 -5 11 -16 40 -24 65 -17
48 -125 338 -190 510 -21 58 -60 164 -85 237 l-47 131 -95 12 c-52 6 -187 22
-300 36 -113 13 -224 27 -247 30 -24 3 -43 3 -43 1 0 -2 5 -18 11 -35 8 -25
17 -32 47 -36 72 -12 399 -46 494 -53 76 -5 98 -9 103 -22 4 -9 29 -79 57
-156 83 -234 123 -343 182 -504 31 -84 56 -158 56 -164 0 -23 -27 31 -49 98
-12 39 -27 79 -31 90 -16 37 -121 319 -162 435 -26 73 -49 122 -64 135 -13 12
-24 26 -24 33 0 7 -8 12 -17 12 -10 0 -125 11 -257 25 -291 30 -280 30 -273 5
3 -10 1 -20 -4 -22 -5 -2 10 -52 32 -113 37 -101 70 -193 194 -541 l43 -120
-41 3 c-23 2 -45 7 -49 11 -4 4 -27 63 -52 132 -24 69 -49 136 -54 150 -20 50
-72 189 -137 370 -165 459 -151 424 -171 416 -9 -3 -20 -6 -25 -6 -15 0 -10
-31 15 -100 14 -36 58 -156 100 -266 69 -187 82 -244 55 -244 -5 0 -9 -8 -9
-19 0 -10 -30 -103 -66 -207 -36 -104 -68 -197 -71 -208 -5 -16 -13 -18 -77
-11 -39 4 -72 7 -73 8 -3 3 -13 300 -18 526 -5 201 -16 339 -31 363 -5 7 2 34
28 113 9 30 32 236 45 407 8 118 -8 191 -72 324 -39 82 -63 119 -89 139 -20
15 -45 44 -57 64 -11 20 -36 47 -56 60 -62 40 -273 47 -273 9 0 -5 -12 -8 -26
-8 -30 0 -64 -16 -64 -32 0 -7 18 -9 50 -6 70 7 78 -1 139 -128 11 -23 24 -45
30 -48 6 -4 10 -27 9 -51 -1 -50 -19 -60 -39 -22 -7 12 -16 24 -20 27 -4 3
-15 32 -23 64 -19 72 -40 106 -66 106 -19 0 -19 0 0 -32 30 -53 57 -129 62
-180 l6 -48 -47 0 c-37 -1 -42 -3 -28 -11 22 -13 37 -50 42 -101 4 -45 -6 -49
-26 -11 -13 24 -79 82 -125 109 -17 10 -17 12 4 46 12 19 19 37 16 40 -7 7 17
58 28 58 4 0 8 -9 8 -20 0 -11 5 -20 11 -20 15 0 6 54 -17 106 -12 27 -18 34
-21 22 -2 -9 1 -27 7 -38 15 -28 6 -36 -25 -22 -21 10 -28 8 -45 -10 -16 -18
-20 -19 -25 -6 -4 10 -14 14 -28 10 -19 -5 -20 -3 -10 10 9 11 10 17 1 26 -8
8 -4 19 16 42 31 38 33 50 6 57 -31 8 -24 16 41 47 33 16 89 46 124 67 35 22
73 39 84 39 12 0 21 5 21 11 0 9 22 10 78 5 134 -12 137 -12 135 2 -2 6 6 12
16 12 17 0 18 4 11 37 -5 20 -6 41 -3 46 3 6 -1 15 -10 22 -15 11 -16 16 -1
59 9 25 20 48 25 52 33 20 -16 24 -285 24 -178 0 -297 -4 -301 -10 -4 -6 -15
-6 -31 0 -14 6 -170 10 -360 10 l-334 0 0 -2535z m714 2489 c10 -25 1 -27 -19
-4 -15 17 -16 20 -3 20 9 0 19 -7 22 -16z m2094 -110 c19 -6 22 -13 22 -62 l0
-55 -82 6 c-46 4 -103 7 -128 7 -37 1 -42 3 -27 11 10 6 30 8 45 4 18 -4 24
-3 17 3 -5 6 -19 12 -30 14 -18 4 -17 6 6 16 31 13 45 49 20 55 -9 3 18 5 59
6 41 0 85 -2 98 -5z m411 -18 c9 -10 8 -16 -4 -26 -18 -15 -20 -50 -2 -50 6 0
4 -5 -6 -11 -9 -6 -41 -11 -69 -11 l-52 -2 34 -11 c25 -8 30 -14 20 -18 -8 -4
-3 -5 13 -3 15 2 27 -1 27 -5 0 -5 -40 -9 -90 -9 l-90 0 0 80 0 80 104 0 c75
0 107 -4 115 -14z m-1949 -25 c0 -30 -11 -51 -26 -51 -17 0 -18 36 -1 55 17
20 27 18 27 -4z m1260 -51 c0 -5 -9 -10 -19 -10 -11 0 -23 5 -26 10 -4 6 5 10
19 10 14 0 26 -4 26 -10z m-2 -37 c2 -9 -8 -13 -34 -13 -35 0 -37 1 -18 15 22
17 45 16 52 -2z m302 -9 c0 -12 -11 -15 -59 -12 -33 1 -57 6 -55 9 2 4 -2 10
-8 12 -7 3 17 6 55 6 54 1 67 -2 67 -15z m-2074 -90 c-11 -28 -28 -1 -20 32 7
27 8 28 17 7 5 -12 7 -30 3 -39z m2394 -114 c0 -5 -4 -10 -10 -10 -5 0 -10 5
-10 10 0 6 5 10 10 10 6 0 10 -4 10 -10z m110 -6 c0 -8 -5 -12 -10 -9 -6 4 -8
11 -5 16 9 14 15 11 15 -7z m-1172 -5 c-2 -3 4 -14 12 -24 13 -16 12 -17 -5
-14 -12 3 -21 14 -23 28 -2 14 1 22 8 19 6 -2 10 -6 8 -9z m97 3 c14 -10 18
-42 5 -42 -5 0 -10 9 -10 19 0 11 -6 22 -12 24 -7 3 -8 6 -3 6 6 0 15 -3 20
-7z m89 -2 c23 -8 26 -15 26 -60 0 -27 -4 -50 -10 -50 -5 0 -10 16 -10 35 0
19 -5 35 -11 35 -6 0 -9 7 -5 15 3 8 -2 19 -12 24 -22 13 -10 14 22 1z m334
-67 c3 -58 1 -63 -18 -63 -12 0 -18 5 -15 10 3 6 1 10 -4 10 -7 0 -10 22 -8
55 2 49 4 55 22 53 17 -3 20 -12 23 -65z m183 60 c1 -5 3 -38 4 -75 2 -66 2
-68 -21 -68 -13 0 -24 5 -24 10 0 6 5 10 12 10 9 0 9 3 0 12 -15 15 -16 65 -1
74 8 5 8 9 -1 14 -7 4 -9 13 -6 19 8 12 35 15 37 4z m264 -15 c19 -8 25 -19
25 -41 0 -34 -12 -29 -15 5 -1 12 -7 24 -14 26 -9 3 -11 -7 -6 -42 6 -35 4
-46 -6 -46 -8 0 -5 -6 7 -14 17 -13 18 -15 2 -21 -9 -4 -21 -5 -25 -2 -8 5 -5
147 2 147 2 0 16 -5 30 -12z m101 -9 c0 -8 4 -29 8 -47 5 -20 4 -38 -3 -46 -6
-7 -8 -16 -4 -19 3 -4 -1 -7 -9 -7 -28 0 -40 74 -15 99 10 11 10 13 0 7 -14
-8 -18 15 -6 28 10 10 28 1 29 -15z m104 -48 c0 -28 -4 -53 -10 -56 -6 -3 -10
4 -10 18 0 14 -3 39 -6 56 -5 24 -3 31 10 31 13 0 16 -10 16 -49z m-1078 4 c2
-12 -3 -20 -11 -20 -8 0 -15 9 -17 19 -6 43 21 43 28 1z m85 -9 c-9 -26 -27
-15 -27 16 1 31 1 32 15 13 9 -10 14 -24 12 -29z m-1387 24 c0 -5 -2 -10 -4
-10 -3 0 -8 5 -11 10 -3 6 -1 10 4 10 6 0 11 -4 11 -10z m1225 -11 c-6 -33
-15 -36 -15 -6 0 15 4 27 9 27 6 0 8 -10 6 -21z m-38 -5 c-3 -3 -12 -4 -19 -1
-8 3 -5 6 6 6 11 1 17 -2 13 -5z m1220 -31 c-3 -10 -5 -4 -5 12 0 17 2 24 5
18 2 -7 2 -21 0 -30z m-1217 -3 c0 -5 -7 -10 -15 -10 -8 0 -15 5 -15 10 0 6 7
10 15 10 8 0 15 -4 15 -10z m200 -10 c0 -5 -9 -10 -21 -10 -11 0 -17 5 -14 10
3 6 13 10 21 10 8 0 14 -4 14 -10z m-1492 -46 c-3 -14 -97 -59 -105 -50 -2 2
12 17 32 35 39 34 79 42 73 15z m2026 -142 c3 -5 -16 -9 -42 -9 l-47 -1 40 8
c22 4 41 8 42 9 1 0 4 -3 7 -7z m-247 -18 c-3 -4 0 -19 9 -35 11 -22 12 -29 2
-29 -9 0 -8 -3 2 -10 10 -7 11 -10 2 -10 -8 0 -11 -9 -8 -24 3 -17 -1 -25 -12
-28 -14 -4 -16 2 -13 39 2 27 -1 43 -8 43 -6 0 -11 7 -11 16 0 8 5 12 10 9 6
-3 10 3 10 14 0 12 5 21 12 21 6 0 9 -3 5 -6z m88 -52 c-6 -8 -35 12 -35 24 0
11 4 10 18 -3 10 -10 18 -19 17 -21z m445 14 c0 -3 -4 -8 -10 -11 -5 -3 -10
-1 -10 4 0 6 5 11 10 11 6 0 10 -2 10 -4z m-393 -22 c-3 -3 -12 -4 -19 -1 -8
3 -5 6 6 6 11 1 17 -2 13 -5z m101 -11 c-15 -2 -42 -2 -60 0 -18 2 -6 4 27 4
33 0 48 -2 33 -4z m209 1 c-3 -3 -12 -4 -19 -1 -8 3 -5 6 6 6 11 1 17 -2 13
-5z m300 -71 c-2 -16 -4 -3 -4 27 0 30 2 43 4 28 2 -16 2 -40 0 -55z m-1092
41 c-9 -9 -19 -13 -23 -10 -3 4 0 11 8 16 24 15 33 11 15 -6z m-50 -24 c48 0
95 -11 95 -22 0 -6 -12 -8 -29 -5 -21 5 -31 2 -35 -10 -6 -14 -8 -14 -26 2
-11 10 -26 15 -34 12 -17 -7 -26 11 -18 32 4 10 7 11 10 3 2 -7 18 -12 37 -12z
m195 -16 c0 -2 -7 -4 -15 -4 -8 0 -15 4 -15 10 0 5 7 7 15 4 8 -4 15 -8 15
-10z m35 6 c3 -5 2 -10 -4 -10 -5 0 -13 5 -16 10 -3 6 -2 10 4 10 5 0 13 -4
16 -10z m193 -34 c43 -14 21 -26 -43 -24 -68 2 -87 20 -27 26 18 2 32 9 32 15
0 9 2 9 8 1 4 -6 17 -14 30 -18z m-432 5 c-3 -5 8 -14 24 -21 27 -11 30 -17
30 -57 0 -45 -1 -45 -29 -40 -15 3 -52 9 -80 13 -50 6 -52 8 -46 33 9 38 22
47 17 11 -3 -18 0 -30 7 -30 6 0 11 5 11 10 0 6 5 10 10 10 6 0 10 -7 10 -15
0 -8 9 -15 20 -15 11 0 20 2 20 5 0 2 -9 20 -20 40 -24 43 -24 45 -5 45 8 0
15 5 15 10 0 6 5 10 11 10 5 0 8 -4 5 -9z m254 -1 c-13 -8 -12 -10 3 -10 9 0
17 -4 17 -10 0 -12 -16 -13 -57 -1 -21 6 -33 6 -35 -1 -3 -7 -12 -6 -28 3 -24
13 -22 14 35 20 33 3 65 6 70 7 6 1 3 -3 -5 -8z m2339 -193 c1 -149 -1 -176
-21 -242 -13 -41 -28 -75 -34 -75 -7 0 -10 -8 -7 -19 3 -10 -1 -22 -7 -26 -9
-5 -10 -1 -5 15 5 15 4 20 -3 16 -6 -4 -16 3 -22 14 -6 12 -7 20 -1 20 5 0 12
-8 14 -17 3 -11 5 -8 6 9 0 15 6 39 13 53 9 19 9 28 0 37 -7 7 -12 17 -12 22
0 6 5 4 10 -4 8 -12 10 -11 10 8 0 17 -6 22 -25 22 -21 0 -25 5 -25 30 0 17 5
30 10 30 6 0 9 14 8 30 -1 17 -6 30 -10 30 -4 0 -8 7 -8 16 0 17 49 61 62 57
5 -2 8 3 8 10 0 8 4 7 11 -3 7 -11 9 0 5 40 -4 42 -3 48 4 25 6 -22 8 -11 5
40 -3 40 -1 62 4 50 4 -11 8 -96 10 -188z m-2379 153 c0 -5 -4 -10 -10 -10 -5
0 -10 5 -10 10 0 6 5 10 10 10 6 0 10 -4 10 -10z m-113 -86 c-3 -3 -12 -4 -19
-1 -8 3 -5 6 6 6 11 1 17 -2 13 -5z m56 -11 c-7 -2 -19 -2 -25 0 -7 3 -2 5 12
5 14 0 19 -2 13 -5z m80 -10 c-7 -2 -21 -2 -30 0 -10 3 -4 5 12 5 17 0 24 -2
18 -5z m191 -22 c3 -4 -6 -6 -19 -3 -14 2 -25 6 -25 8 0 8 39 4 44 -5z m-509
-31 c3 -5 2 -10 -4 -10 -5 0 -13 5 -16 10 -3 6 -2 10 4 10 5 0 13 -4 16 -10z
m612 -22 c-3 -8 -6 -5 -6 6 -1 11 2 17 5 13 3 -3 4 -12 1 -19z m10 -50 c-3 -7
-5 -2 -5 12 0 14 2 19 5 13 2 -7 2 -19 0 -25z m43 -172 c0 -19 -22 -56 -32
-55 -10 0 -10 2 0 6 18 7 15 30 -5 42 -15 9 -14 10 10 11 15 0 27 -2 27 -4z
m4761 -140 c-6 -7 -28 -16 -47 -19 -20 -4 -46 -14 -58 -24 -21 -18 -21 -18 -5
2 9 11 14 26 12 33 -3 6 0 12 5 12 5 0 12 13 15 29 5 25 12 30 39 33 28 3 34
-1 42 -24 6 -19 5 -32 -3 -42z m-137 31 c7 -7 11 -17 9 -24 -2 -6 1 -14 6 -18
7 -4 5 -14 -5 -30 -9 -14 -20 -22 -25 -19 -5 3 -13 -5 -18 -18 -6 -13 -10 -21
-11 -18 0 3 -7 23 -15 45 -13 39 -13 41 13 67 32 32 30 31 46 15z m178 -9 c-7
-7 -12 -8 -12 -2 0 14 12 26 19 19 2 -3 -1 -11 -7 -17z m101 2 c10 -10 6 -11
-16 -8 -19 4 -30 0 -36 -10 -7 -12 -9 -10 -8 10 2 21 7 25 25 23 13 -1 29 -8
35 -15z m-2953 -31 c0 -6 -4 -7 -10 -4 -5 3 -10 11 -10 16 0 6 5 7 10 4 6 -3
10 -11 10 -16z m2550 -14 c0 -12 -19 -12 -23 0 -4 9 -1 12 9 8 7 -3 14 -7 14
-8z m487 -11 c13 -13 23 -30 23 -38 0 -8 5 -16 12 -18 20 -7 0 -38 -24 -37
l-23 2 23 4 c24 5 31 23 8 23 -8 0 -27 13 -43 29 -20 19 -43 30 -77 35 -62 10
-43 26 28 24 38 0 55 -6 73 -24z m-597 -4 c-8 -5 -19 -10 -25 -10 -5 0 -3 5 5
10 8 5 20 10 25 10 6 0 3 -5 -5 -10z m-4994 -28 c11 -10 32 -22 47 -25 14 -4
31 -16 37 -28 15 -26 9 -85 -7 -81 -7 1 -13 -5 -13 -13 0 -25 23 -66 35 -61 6
2 17 -5 23 -15 11 -18 63 -28 61 -11 -3 19 2 33 11 27 5 -3 7 -12 4 -20 -4
-10 2 -13 23 -12 17 1 27 -3 26 -10 -1 -6 4 -17 12 -23 20 -16 19 -40 0 -40
-9 0 -20 11 -25 25 -5 14 -14 25 -20 25 -6 0 -6 -9 0 -25 9 -23 7 -25 -20 -25
-16 0 -32 5 -36 12 -5 7 -10 4 -15 -10 -10 -26 -27 -27 -74 -7 -35 14 -58 51
-54 84 4 26 -39 106 -63 116 -35 15 -45 56 -24 99 19 40 42 46 72 18z m599 7
c12 -18 -2 -22 -52 -14 -38 6 -44 9 -28 16 29 11 73 11 80 -2z m4917 -5 c11
-3 20 -23 28 -56 6 -29 15 -57 20 -64 7 -7 6 -24 -2 -50 -23 -70 -127 -98
-205 -56 -25 14 -63 60 -63 76 0 6 4 5 9 -3 5 -7 19 -15 32 -16 13 -2 37 -8
52 -14 22 -9 33 -8 48 3 15 10 17 15 7 19 -8 3 -5 6 7 6 17 1 17 3 5 11 -12 8
-11 10 8 10 12 0 22 5 22 11 0 6 -8 8 -19 4 -12 -3 -21 0 -25 11 -8 20 2 37
16 28 6 -4 5 -10 -3 -16 -10 -6 -6 -7 11 -3 14 4 32 13 40 21 12 12 12 16 -3
32 -13 13 -32 16 -75 15 l-57 -2 24 20 c13 11 30 18 38 15 7 -3 13 -1 13 5 0
8 20 6 72 -7z m-42 -54 c8 -5 11 -10 5 -10 -5 0 -17 5 -25 10 -8 5 -10 10 -5
10 6 0 17 -5 25 -10z m-4570 -9 c0 -5 -3 -17 -6 -26 -5 -12 -9 -14 -14 -4 -5
7 -6 18 -3 26 6 15 23 18 23 4z m1647 -38 c-3 -10 -5 -4 -5 12 0 17 2 24 5 18
2 -7 2 -21 0 -30z m2467 28 c3 -5 -8 -11 -24 -13 -20 -3 -30 0 -30 9 0 14 46
18 54 4z m229 -25 c3 -8 -8 -13 -34 -15 -40 -2 -51 11 -23 27 20 11 51 5 57
-12z m34 -18 c-3 -7 -5 -2 -5 12 0 14 2 19 5 13 2 -7 2 -19 0 -25z m-6104 2
c10 -10 2 -11 -38 -6 -67 9 -88 30 -22 23 27 -2 54 -10 60 -17z m92 0 c8 -13
-15 -13 -35 0 -12 8 -11 10 7 10 12 0 25 -4 28 -10z m3262 -22 c-3 -8 -6 -5
-6 6 -1 11 2 17 5 13 3 -3 4 -12 1 -19z m2313 -23 c0 -76 71 -133 151 -122 30
4 38 2 30 -6 -17 -17 -107 -12 -137 8 -41 27 -85 145 -54 145 6 0 10 -11 10
-25z m255 15 c-3 -5 -10 -10 -16 -10 -5 0 -9 5 -9 10 0 6 7 10 16 10 8 0 12
-4 9 -10z m-212 -65 c-3 -9 -8 -14 -10 -11 -3 3 -2 9 2 15 9 16 15 13 8 -4z
m205 -25 c-7 -11 -17 -20 -22 -20 -5 0 -1 9 9 20 10 11 20 20 22 20 2 0 -2 -9
-9 -20z m-101 -86 c-3 -3 -12 -4 -19 -1 -8 3 -5 6 6 6 11 1 17 -2 13 -5z
m-4922 -24 c-4 -7 2 -9 19 -4 23 5 26 3 26 -18 0 -24 2 -25 70 -22 49 2 70 0
70 -9 0 -8 3 -7 9 2 5 8 14 10 21 6 10 -6 12 -2 8 13 -4 12 -2 22 3 22 5 0 9
-4 9 -9 0 -5 8 -7 18 -5 11 3 21 -4 30 -23 24 -54 21 -56 -93 -51 -100 3 -105
3 -106 -17 0 -16 -3 -15 -11 7 -8 23 -12 26 -28 16 -14 -9 -22 -9 -34 1 -19
16 -21 41 -4 41 6 0 4 7 -5 18 -19 21 -22 42 -6 42 5 0 7 -5 4 -10z m180 -20
c3 -5 1 -10 -4 -10 -6 0 -11 5 -11 10 0 6 2 10 4 10 3 0 8 -4 11 -10z m4855
-179 c0 -5 -8 -11 -17 -13 -13 -3 -7 -9 20 -21 20 -9 37 -17 37 -19 0 -10 -70
0 -84 12 -17 13 -17 15 4 32 24 20 40 23 40 9z m73 -10 c10 -1 9 -21 -1 -21
-5 0 -17 6 -28 14 -19 15 -19 15 1 11 11 -2 23 -4 28 -4z m-5163 -32 c0 -6 -4
-7 -10 -4 -5 3 -10 11 -10 16 0 6 5 7 10 4 6 -3 10 -11 10 -16z m76 1 c27 0
34 -4 34 -19 0 -15 -6 -18 -31 -16 -32 2 -49 19 -48 45 0 10 2 11 6 3 2 -7 20
-13 39 -13z m54 12 c0 -4 12 -8 27 -7 18 0 29 -6 31 -17 6 -30 -52 -24 -66 7
-7 15 -8 25 -2 25 6 0 10 -4 10 -8z m233 -12 c3 -11 1 -18 -4 -14 -5 3 -9 12
-9 20 0 20 7 17 13 -6z m47 1 c0 -25 -20 -38 -31 -20 -15 23 -10 39 11 39 13
0 20 -7 20 -19z m50 15 c0 -2 3 -12 7 -22 5 -13 3 -16 -10 -11 -10 4 -17 1
-17 -6 0 -16 -20 14 -20 31 0 6 9 12 20 12 11 0 20 -2 20 -4z m-690 -22 c0 -2
-14 -4 -31 -4 -16 0 -28 4 -25 9 5 8 56 3 56 -5z m558 -21 c-10 -2 -26 -2 -35
0 -10 3 -2 5 17 5 19 0 27 -2 18 -5z m115 -73 c-3 -11 -9 -20 -13 -20 -5 0 -6
9 -3 20 3 11 9 20 13 20 5 0 6 -9 3 -20z m-753 -21 c0 -11 -7 -19 -16 -19 -11
0 -14 5 -10 16 3 9 6 20 6 25 0 6 5 7 10 4 6 -3 10 -15 10 -26z m647 15 c-3
-3 -12 -4 -19 -1 -8 3 -5 6 6 6 11 1 17 -2 13 -5z m-600 -40 c-3 -3 -12 -4
-19 -1 -8 3 -5 6 6 6 11 1 17 -2 13 -5z m360 -20 c-3 -3 -12 -4 -19 -1 -8 3
-5 6 6 6 11 1 17 -2 13 -5z m101 1 c-9 -9 -68 -13 -62 -4 3 5 19 9 36 9 17 0
29 -2 26 -5z m292 -14 c0 -5 -9 -7 -20 -4 -11 3 -20 7 -20 9 0 2 9 4 20 4 11
0 20 -4 20 -9z m43 2 c-7 -2 -19 -2 -25 0 -7 3 -2 5 12 5 14 0 19 -2 13 -5z
m2690 -40 c-7 -2 -21 -2 -30 0 -10 3 -4 5 12 5 17 0 24 -2 18 -5z m172 -330
c48 -131 93 -251 100 -268 40 -96 85 -225 78 -225 -2 0 -11 15 -19 33 l-15 32
6 -35 c4 -23 3 -30 -3 -21 -8 11 -11 11 -18 0 -4 -8 -3 -14 5 -17 8 -3 9 -8 1
-17 -5 -7 -8 -27 -6 -46 2 -26 8 -35 25 -37 15 -3 29 -17 41 -44 14 -32 19
-36 23 -22 3 14 6 11 12 -13 4 -18 11 -33 16 -33 4 0 3 15 -3 33 -18 58 -19
72 -4 38 9 -18 16 -37 16 -42 0 -5 16 -43 35 -85 19 -41 35 -80 35 -85 0 -5 5
-9 10 -9 6 0 10 6 10 13 0 27 71 104 117 127 l46 23 140 -17 c77 -9 155 -23
173 -31 62 -26 157 -175 124 -195 -7 -5 -11 -19 -8 -33 4 -22 -1 -19 -40 24
-51 57 -92 81 -183 104 -140 37 -346 -5 -426 -86 -34 -34 -41 -34 -48 -3 -8
37 -50 149 -57 152 -5 2 -8 11 -8 20 0 10 -12 44 -26 77 -26 61 -30 79 -33
128 0 15 -7 27 -14 27 -8 0 -19 10 -25 23 -17 34 -98 237 -112 282 -12 38
-100 267 -120 310 -4 11 -16 42 -26 68 -9 26 -22 51 -28 54 -6 4 9 12 34 19
90 24 78 40 175 -223z m-1497 200 c-10 -2 -26 -2 -35 0 -10 3 -2 5 17 5 19 0
27 -2 18 -5z m4785 -70 c-29 -2 -78 -2 -110 0 -32 2 -8 3 52 3 61 0 87 -1 58
-3z m763 -39 c19 -15 19 -15 -1 -6 -11 5 -27 12 -35 15 -13 5 -13 6 1 6 8 1
24 -6 35 -15z m-6688 -84 c6 -16 7 -32 3 -34 -4 -3 -8 0 -8 7 0 7 -3 22 -7 35
-11 33 0 27 12 -8z m4522 -20 c0 -5 -4 -10 -10 -10 -5 0 -10 5 -10 10 0 6 5
10 10 10 6 0 10 -4 10 -10z m-4475 -110 c5 -18 4 -22 -4 -14 -6 6 -13 21 -16
33 -2 12 -7 32 -9 44 -7 27 19 -28 29 -63z m31 -72 c13 -40 7 -48 -38 -48 -17
0 -18 3 -8 14 6 8 18 12 26 9 8 -3 14 0 14 7 0 6 -4 9 -9 6 -5 -3 -11 1 -15 9
-3 8 -1 15 5 15 6 0 7 5 4 10 -5 8 -11 7 -21 -1 -11 -9 -14 -8 -14 5 0 34 42
14 56 -26z m611 10 c6 -5 28 -10 47 -11 51 -3 47 -27 -4 -27 -22 0 -40 -4 -40
-10 0 -5 16 -10 36 -10 19 0 42 -6 50 -14 19 -20 18 -66 -3 -82 -17 -13 -17
-14 0 -8 14 5 17 0 17 -36 0 -33 -3 -41 -14 -37 -10 4 -13 1 -10 -7 7 -18 -9
-28 -30 -20 -21 8 -20 21 2 27 23 5 2 14 -58 22 -45 6 -79 20 -70 29 3 3 34 7
69 10 60 4 98 16 54 16 -12 0 -24 6 -27 13 -5 10 -7 10 -12 0 -8 -17 -35 -16
-70 2 -16 8 -43 15 -60 15 -31 0 -44 14 -44 46 0 8 6 11 15 8 12 -5 15 3 15
35 0 38 -12 54 -23 31 -3 -6 -4 -5 -3 2 1 7 12 15 25 18 32 7 124 0 138 -12z
m1901 -103 c-3 -3 -9 2 -12 12 -6 14 -5 15 5 6 7 -7 10 -15 7 -18z m49 -117
c-3 -8 -6 -5 -6 6 -1 11 2 17 5 13 3 -3 4 -12 1 -19z m19 -33 c10 -26 -1 -35
-13 -10 -6 14 -7 25 -2 25 5 0 12 -7 15 -15z m-2079 -1 c-3 -3 -12 -4 -19 -1
-8 3 -5 6 6 6 11 1 17 -2 13 -5z m87 -10 c3 -8 2 -12 -4 -9 -6 3 -10 10 -10
16 0 14 7 11 14 -7z m-30 -20 c3 -8 2 -12 -4 -9 -6 3 -10 10 -10 16 0 14 7 11
14 -7z m2049 -44 c3 -11 1 -18 -4 -14 -5 3 -9 12 -9 20 0 20 7 17 13 -6z
m-2013 0 c0 -5 -8 -10 -17 -10 -15 0 -16 2 -3 10 19 12 20 12 20 0z m2140 -45
c0 -5 -5 -3 -10 5 -5 8 -10 20 -10 25 0 6 5 3 10 -5 5 -8 10 -19 10 -25z
m-2158 -27 c-10 -10 -10 -8 -2 37 1 6 4 2 7 -9 3 -10 0 -23 -5 -28z m2045 10
c-3 -8 -6 -5 -6 6 -1 11 2 17 5 13 3 -3 4 -12 1 -19z m31 -48 c6 -16 7 -32 3
-35 -5 -2 -11 3 -14 13 -2 9 -8 25 -12 35 -4 9 -3 17 3 17 6 0 15 -13 20 -30z
m-2041 -56 c-3 -3 -12 -4 -19 -1 -8 3 -5 6 6 6 11 1 17 -2 13 -5z m2092 -87
c12 -21 21 -41 21 -46 0 -5 8 -26 17 -47 9 -22 17 -43 17 -47 1 -4 6 -11 11
-15 6 -4 11 -20 12 -36 1 -16 1 -27 -1 -25 -3 3 -61 144 -103 249 -10 24 3 8
26 -33z m-1146 -574 c-13 -2 -33 -2 -45 0 -13 2 -3 4 22 4 25 0 35 -2 23 -4z
m-58 -47 c8 -7 34 -17 59 -20 51 -8 69 -24 37 -33 -28 -7 -27 -23 2 -24 l22 0
-22 -16 c-32 -22 -29 -30 17 -38 22 -4 40 -11 40 -15 0 -5 12 -11 28 -14 15
-2 -46 -3 -134 0 -89 2 -175 7 -193 10 -48 10 -37 26 13 19 28 -5 46 -3 50 4
4 6 16 11 27 11 10 0 19 4 19 8 0 15 -70 34 -100 27 -23 -5 -30 -3 -30 9 0 13
29 30 55 31 6 0 20 9 33 20 l23 20 -23 7 c-17 4 -11 6 20 7 25 1 49 -5 57 -13z
m4680 -139 c-2 -29 -7 -96 -10 -149 -6 -111 -11 -128 -34 -128 -15 0 -15 15
-5 172 6 95 12 174 12 176 1 1 11 -2 22 -8 17 -9 19 -18 15 -63z m-5118 57
c-3 -3 -12 -4 -19 -1 -8 3 -5 6 6 6 11 1 17 -2 13 -5z m350 -20 c-3 -3 -12 -4
-19 -1 -8 3 -5 6 6 6 11 1 17 -2 13 -5z m-317 -18 c0 -2 -7 -7 -16 -10 -8 -3
-12 -2 -9 4 6 10 25 14 25 6z m218 -11 c3 -3 -38 -5 -91 -5 -65 0 -97 4 -97
11 0 8 27 9 92 5 50 -3 94 -8 96 -11z m1522 -169 c0 -2 -8 -10 -17 -17 -16
-13 -17 -12 -4 4 13 16 21 21 21 13z m3147 -38 c-3 -8 -6 -5 -6 6 -1 11 2 17
5 13 3 -3 4 -12 1 -19z m-2909 -13 c-12 -14 -26 -25 -32 -25 -5 0 1 11 14 25
13 14 27 25 32 25 4 0 -2 -11 -14 -25z m-265 -4 c2 -10 0 -26 -5 -35 -6 -10
-5 -16 1 -16 6 0 8 -7 5 -15 -7 -18 7 -20 24 -3 9 9 15 9 24 0 9 -9 7 -12 -10
-12 -12 0 -27 -9 -34 -20 -9 -15 -24 -20 -53 -20 -35 0 -40 3 -41 24 -1 17 2
23 12 19 10 -4 14 3 14 21 0 14 5 26 10 26 6 0 16 11 22 25 13 30 24 32 31 6z
m4808 -69 c-8 -35 -9 -33 -9 23 -1 46 1 55 8 37 6 -13 6 -38 1 -60z m-4144 12
c-3 -3 -12 -4 -19 -1 -8 3 -5 6 6 6 11 1 17 -2 13 -5z m56 -1 c-7 -2 -19 -2
-25 0 -7 3 -2 5 12 5 14 0 19 -2 13 -5z m-613 -7 c0 -2 -8 -10 -17 -17 -16
-13 -17 -12 -4 4 13 16 21 21 21 13z m78 -23 c-15 -16 -31 -44 -37 -63 l-11
-35 5 38 c2 25 13 48 30 63 36 33 45 30 13 -3z m4669 -15 c-3 -8 -6 -5 -6 6
-1 11 2 17 5 13 3 -3 4 -12 1 -19z m-4957 -2 c0 -2 -7 -7 -16 -10 -8 -3 -12
-2 -9 4 6 10 25 14 25 6z m156 -5 c-12 -5 -16 -10 -9 -14 6 -4 17 -5 25 -2 7
3 22 -2 33 -10 19 -16 18 -16 -20 -11 -22 3 -58 6 -80 7 l-40 1 32 11 c17 7
35 15 39 20 4 4 14 7 23 6 12 0 11 -2 -3 -8z m6344 -15 c0 -2 -7 -9 -15 -16
-12 -10 -15 -10 -15 4 0 9 7 16 15 16 8 0 15 -2 15 -4z m-2170 -156 c0 -5 -2
-10 -4 -10 -3 0 -8 5 -11 10 -3 6 -1 10 4 10 6 0 11 -4 11 -10z m-5455 -270
c16 14 35 5 35 -15 0 -18 -40 -56 -51 -49 -5 3 -6 -2 -3 -11 6 -15 -37 -65
-57 -65 -5 0 -9 -5 -9 -11 0 -5 10 -9 22 -7 11 2 23 -3 25 -9 3 -9 -6 -13 -26
-13 -26 0 -31 4 -31 25 0 14 -4 25 -10 25 -5 0 -10 -4 -10 -10 0 -17 -52 -11
-66 8 -12 16 -13 15 -14 -5 0 -29 -16 -30 -23 -2 -3 12 -3 18 0 15 9 -9 33 21
32 41 -1 17 -2 17 -6 1 -5 -22 -22 -23 -29 -3 -4 8 -10 12 -15 9 -5 -3 -9 0
-9 5 0 6 5 11 11 11 5 0 8 4 5 9 -3 5 12 19 35 30 22 12 38 17 34 11 -3 -5 0
-10 7 -10 9 0 9 -3 -2 -10 -13 -8 -13 -10 2 -10 9 0 21 7 26 16 6 12 18 15 36
12 14 -3 26 -2 26 1 0 3 10 11 23 16 16 7 23 7 25 -3 3 -10 7 -10 17 -2z
m4795 -130 c0 -5 -4 -10 -10 -10 -5 0 -10 5 -10 10 0 6 5 10 10 10 6 0 10 -4
10 -10z m-5026 -31 c-8 -13 -24 -1 -24 18 0 13 3 13 15 3 8 -7 12 -16 9 -21z
m76 -73 c-8 -8 -9 -6 -5 7 5 12 2 17 -9 17 -14 0 -15 2 -4 14 11 12 14 11 21
-7 4 -12 3 -25 -3 -31z m73 31 c3 -7 -3 -13 -14 -14 -15 -1 -16 1 -6 12 15 18
14 18 20 2z m37 -7 c0 -5 -2 -10 -4 -10 -3 0 -8 5 -11 10 -3 6 -1 10 4 10 6 0
11 -4 11 -10z m62 -10 c22 7 34 5 45 -5 8 -8 21 -15 29 -15 8 0 12 -5 9 -11
-4 -6 -13 -8 -21 -5 -8 3 -14 1 -14 -4 0 -6 7 -10 15 -10 8 0 15 -9 15 -20 0
-11 -5 -20 -11 -20 -5 0 -7 6 -3 13 4 6 4 9 0 5 -4 -3 -20 -3 -35 2 -16 4 -35
4 -42 -1 -10 -6 -3 -9 21 -10 27 0 30 -2 16 -8 -19 -7 -19 -8 0 -15 10 -4 20
-3 22 3 6 18 42 -7 42 -29 0 -14 5 -18 18 -14 14 5 15 4 2 -5 -19 -13 -53 -14
-45 -1 3 5 0 7 -8 4 -8 -3 -17 2 -20 10 -4 9 -11 16 -17 16 -6 0 -4 -7 4 -16
25 -24 19 -41 -14 -46 -38 -6 -76 22 -57 41 9 10 8 11 -6 5 -10 -3 -28 1 -42
10 -20 13 -23 20 -16 35 6 10 8 21 5 24 -3 3 0 8 6 12 9 6 10 -1 5 -24 -4 -20
-3 -31 4 -31 6 0 11 8 12 18 0 10 3 12 6 4 2 -6 9 -10 14 -6 5 3 0 17 -11 31
-21 28 -26 53 -10 53 6 0 10 -7 10 -15 0 -25 17 -17 25 13 4 15 9 22 12 15 3
-8 13 -9 35 -3z m-127 -60 c3 -5 -1 -10 -10 -10 -9 0 -13 5 -10 10 3 6 8 10
10 10 2 0 7 -4 10 -10z m-15 -35 c0 -8 -4 -15 -8 -15 -5 0 -9 7 -9 15 0 8 4
15 9 15 4 0 8 -7 8 -15z m265 -34 c-9 -8 -36 30 -29 40 4 8 11 3 20 -12 7 -13
11 -26 9 -28z m-215 -11 c8 -5 11 -12 7 -17 -5 -4 -11 -3 -15 3 -4 6 -14 14
-22 17 -13 5 -13 5 0 6 8 0 22 -3 30 -9z m25 -40 c3 -5 1 -10 -4 -10 -6 0 -11
5 -11 10 0 6 2 10 4 10 3 0 8 -4 11 -10z m44 -65 c2 -11 8 -23 13 -26 6 -4 7
-13 3 -20 -6 -9 -10 -7 -16 9 -5 12 -15 22 -24 22 -8 0 -15 6 -15 14 0 8 -6
17 -12 20 -7 3 0 4 17 3 21 -1 31 -8 34 -22z m-14 -55 c3 -5 1 -10 -4 -10 -6
0 -11 5 -11 10 0 6 2 10 4 10 3 0 8 -4 11 -10z m53 -57 c-16 -2 -40 -2 -55 0
-16 2 -3 4 27 4 30 0 43 -2 28 -4z m-68 -107 c0 -3 -4 -8 -10 -11 -5 -3 -10
-1 -10 4 0 6 5 11 10 11 6 0 10 -2 10 -4z"/>
<path d="M4722 4710 c0 -14 2 -19 5 -12 2 6 2 18 0 25 -3 6 -5 1 -5 -13z"/>
<path d="M4722 4590 c0 -14 2 -19 5 -12 2 6 2 18 0 25 -3 6 -5 1 -5 -13z"/>
<path d="M4695 4510 c-4 -12 -5 -24 -2 -27 3 -2 8 5 12 17 4 12 5 24 2 27 -3
2 -8 -5 -12 -17z"/>
<path d="M2090 4291 c0 -17 -4 -32 -10 -36 -5 -3 -7 -12 -4 -20 4 -8 11 -12
16 -9 5 4 21 0 36 -7 20 -11 26 -11 29 -1 6 17 24 15 39 -5 12 -17 13 -17 19
0 10 26 -18 62 -68 86 -55 27 -57 27 -57 -8z"/>
<path d="M2130 4194 c0 -19 27 -54 42 -54 19 0 21 5 9 34 -4 11 -17 20 -29 21
-12 1 -22 0 -22 -1z"/>
<path d="M2183 4103 c-20 -7 -15 -51 7 -73 11 -11 31 -20 45 -20 21 0 25 5 25
28 0 45 -39 77 -77 65z"/>
<path d="M2321 4034 c0 -11 3 -14 6 -6 3 7 2 16 -1 19 -3 4 -6 -2 -5 -13z"/>
<path d="M2220 3960 c0 -5 5 -10 10 -10 6 0 10 5 10 10 0 6 -4 10 -10 10 -5 0
-10 -4 -10 -10z"/>
<path d="M2450 3914 c0 -8 5 -12 10 -9 6 4 8 11 5 16 -9 14 -15 11 -15 -7z"/>
<path d="M2231 3911 c-8 -6 -9 -11 -3 -15 6 -3 14 -1 17 5 9 14 2 20 -14 10z"/>
<path d="M2360 3905 c0 -8 5 -15 10 -15 6 0 10 7 10 15 0 8 -4 15 -10 15 -5 0
-10 -7 -10 -15z"/>
<path d="M5790 2460 c0 -5 5 -10 11 -10 5 0 7 5 4 10 -3 6 -8 10 -11 10 -2 0
-4 -4 -4 -10z"/>
<path d="M4480 1700 c0 -13 30 -13 50 0 11 7 7 10 -17 10 -18 0 -33 -4 -33
-10z"/>
<path d="M4510 805 c-7 -9 -10 -18 -7 -21 3 -3 10 4 17 15 13 25 8 27 -10 6z"/>
<path d="M4540 646 c0 -2 7 -7 16 -10 8 -3 12 -2 9 4 -6 10 -25 14 -25 6z"/>
<path d="M4553 545 c0 -8 4 -12 9 -9 5 3 6 10 3 15 -9 13 -12 11 -12 -6z"/>
<path d="M4585 530 c3 -5 8 -10 11 -10 2 0 4 5 4 10 0 6 -5 10 -11 10 -5 0 -7
-4 -4 -10z"/>
<path d="M8560 5930 l0 -40 40 0 40 0 0 -40 0 -40 80 0 80 0 0 -39 0 -40 52
-3 c44 -3 54 -7 65 -28 7 -14 19 -24 28 -22 8 2 15 -4 15 -13 0 -8 -9 -15 -19
-15 -25 0 -34 -15 -18 -28 10 -8 17 -6 27 8 19 26 40 26 40 0 0 -11 7 -20 15
-20 8 0 15 -9 15 -20 0 -11 5 -20 10 -20 6 0 10 -7 10 -15 0 -11 11 -15 40
-15 39 0 40 -1 41 -37 0 -21 3 -32 6 -25 2 6 9 12 15 12 6 0 8 -28 6 -77 -3
-43 -3 -61 -1 -40 2 20 8 37 14 37 5 0 10 19 11 43 1 23 4 2 8 -48 4 -49 3
-133 -2 -185 -4 -53 -4 -121 1 -155 l9 -60 2 85 c3 74 4 79 10 40 l7 -45 1 43
c1 23 6 42 11 42 5 0 12 35 16 78 7 83 24 144 37 136 4 -3 8 18 8 45 0 38 6
57 23 77 30 34 40 64 23 64 -16 0 -26 21 -26 55 0 16 7 24 25 27 14 3 28 1 31
-4 8 -13 24 1 23 20 0 14 -2 13 -10 -3 -8 -20 -5 32 7 113 3 19 1 32 -6 32 -5
0 -10 7 -10 16 0 8 5 12 10 9 6 -3 11 4 11 17 1 19 3 18 9 -7 6 -22 8 -9 9 48
1 69 -9 98 -22 65 -4 -10 -6 -10 -6 0 -1 9 -89 12 -406 12 l-405 0 0 -40z
m787 -192 c-2 -13 -4 -3 -4 22 0 25 2 35 4 23 2 -13 2 -33 0 -45z m-220 -160
c-3 -8 -6 -5 -6 6 -1 11 2 17 5 13 3 -3 4 -12 1 -19z m70 0 c-3 -8 -6 -5 -6 6
-1 11 2 17 5 13 3 -3 4 -12 1 -19z"/>
<path d="M9416 5954 c-3 -9 -6 -59 -6 -112 -1 -53 -5 -116 -9 -139 -4 -23 -5
-59 -2 -80 5 -28 9 -7 15 82 17 269 18 289 2 249z"/>
<path d="M9392 5790 c0 -14 2 -19 5 -12 2 6 2 18 0 25 -3 6 -5 1 -5 -13z"/>
<path d="M9383 5725 c0 -22 2 -30 4 -17 2 12 2 30 0 40 -3 9 -5 -1 -4 -23z"/>
<path d="M9393 5525 c0 -22 2 -30 4 -17 2 12 2 30 0 40 -3 9 -5 -1 -4 -23z"/>
<path d="M9020 5510 c0 -11 5 -20 10 -20 6 0 10 6 10 14 0 10 13 16 38 19 34
3 33 4 -10 5 -42 2 -48 -1 -48 -18z"/>
<path d="M9382 5385 c0 -16 2 -22 5 -12 2 9 2 23 0 30 -3 6 -5 -1 -5 -18z"/>
<path d="M925 5330 c3 -5 8 -10 11 -10 2 0 4 5 4 10 0 6 -5 10 -11 10 -5 0 -7
-4 -4 -10z"/>
<path d="M966 5315 c-3 -8 -12 -12 -20 -9 -17 6 -31 -12 -16 -21 14 -9 70 17
70 32 0 18 -27 16 -34 -2z"/>
<path d="M9361 5154 c0 -11 3 -14 6 -6 3 7 2 16 -1 19 -3 4 -6 -2 -5 -13z"/>
<path d="M9150 4815 c-7 -64 -10 -118 -8 -120 3 -3 11 47 18 110 7 64 10 118
8 120 -3 3 -11 -47 -18 -110z"/>
<path d="M9342 4910 c0 -14 2 -19 5 -12 2 6 2 18 0 25 -3 6 -5 1 -5 -13z"/>
<path d="M9291 4834 c0 -11 3 -14 6 -6 3 7 2 16 -1 19 -3 4 -6 -2 -5 -13z"/>
<path d="M3704 4625 c0 -55 1 -76 3 -47 2 29 2 74 0 100 -2 26 -3 2 -3 -53z"/>
<path d="M3822 3950 c-2 -621 -1 -640 32 -640 5 0 2 6 -7 13 -16 11 -17 63
-20 627 l-2 615 -3 -615z"/>
<path d="M2598 4453 c7 -3 16 -2 19 1 4 3 -2 6 -13 5 -11 0 -14 -3 -6 -6z"/>
<path d="M1880 4413 c0 -11 3 -14 8 -7 4 6 14 14 22 17 10 4 8 6 -7 6 -16 1
-23 -5 -23 -16z"/>
<path d="M1968 4413 c12 -2 32 -2 45 0 12 2 2 4 -23 4 -25 0 -35 -2 -22 -4z"/>
<path d="M2058 4403 c12 -2 32 -2 45 0 12 2 2 4 -23 4 -25 0 -35 -2 -22 -4z"/>
<path d="M2173 4393 c9 -2 23 -2 30 0 6 3 -1 5 -18 5 -16 0 -22 -2 -12 -5z"/>
<path d="M2248 4383 c6 -2 18 -2 25 0 6 3 1 5 -13 5 -14 0 -19 -2 -12 -5z"/>
<path d="M2358 4373 c12 -2 32 -2 45 0 12 2 2 4 -23 4 -25 0 -35 -2 -22 -4z"/>
<path d="M9293 4205 c0 -22 2 -30 4 -17 2 12 2 30 0 40 -3 9 -5 -1 -4 -23z"/>
<path d="M7835 3999 c-4 -6 -5 -12 -2 -15 2 -3 7 2 10 11 7 17 1 20 -8 4z"/>
<path d="M7800 3906 c0 -9 5 -16 10 -16 6 0 10 4 10 9 0 6 -4 13 -10 16 -5 3
-10 -1 -10 -9z"/>
<path d="M9271 3904 c0 -11 3 -14 6 -6 3 7 2 16 -1 19 -3 4 -6 -2 -5 -13z"/>
<path d="M7388 3803 c6 -2 18 -2 25 0 6 3 1 5 -13 5 -14 0 -19 -2 -12 -5z"/>
<path d="M9263 3770 c0 -25 2 -35 4 -22 2 12 2 32 0 45 -2 12 -4 2 -4 -23z"/>
<path d="M9252 3675 c0 -16 2 -22 5 -12 2 9 2 23 0 30 -3 6 -5 -1 -5 -18z"/>
<path d="M5653 3623 c9 -2 25 -2 35 0 9 3 1 5 -18 5 -19 0 -27 -2 -17 -5z"/>
<path d="M5487 3607 c-39 -13 -34 -23 20 -37 37 -11 43 -15 27 -21 -12 -5 3
-8 41 -8 33 -1 70 -4 83 -7 20 -6 22 -3 22 30 0 36 0 36 -42 36 -24 1 -61 4
-83 9 -22 4 -53 3 -68 -2z"/>
<path d="M5928 3593 c7 -3 16 -2 19 1 4 3 -2 6 -13 5 -11 0 -14 -3 -6 -6z"/>
<path d="M5735 3580 c17 -4 48 -8 70 -8 38 0 38 1 10 8 -16 4 -48 8 -70 8 -38
0 -38 -1 -10 -8z"/>
<path d="M5930 3559 c153 -18 674 -39 659 -25 -2 2 -98 6 -214 10 -115 4 -264
11 -330 16 -142 11 -207 11 -115 -1z"/>
<path d="M9240 3528 c-3 -26 -1 -43 3 -39 5 5 7 26 5 47 l-3 39 -5 -47z"/>
<path d="M5778 3503 c29 -2 74 -2 100 0 26 2 2 3 -53 3 -55 0 -76 -1 -47 -3z"/>
<path d="M5978 3503 c7 -3 16 -2 19 1 4 3 -2 6 -13 5 -11 0 -14 -3 -6 -6z"/>
<path d="M9231 3394 c0 -11 3 -14 6 -6 3 7 2 16 -1 19 -3 4 -6 -2 -5 -13z"/>
<path d="M9663 3135 c0 -33 2 -45 4 -27 2 18 2 45 0 60 -2 15 -4 0 -4 -33z"/>
<path d="M3060 3065 c0 -5 5 -17 10 -25 5 -8 10 -10 10 -5 0 6 -5 17 -10 25
-5 8 -10 11 -10 5z"/>
<path d="M2955 2890 c-3 -5 -3 -14 0 -20 3 -5 1 -10 -5 -10 -6 0 -8 -4 -5 -10
3 -5 13 -10 21 -10 11 0 12 5 6 18 -5 9 -7 23 -5 30 6 14 -3 16 -12 2z"/>
<path d="M2988 2863 c7 -3 16 -2 19 1 4 3 -2 6 -13 5 -11 0 -14 -3 -6 -6z"/>
<path d="M3131 2834 c0 -11 3 -14 6 -6 3 7 2 16 -1 19 -3 4 -6 -2 -5 -13z"/>
<path d="M8980 1830 c0 -5 5 -10 10 -10 6 0 10 5 10 10 0 6 -4 10 -10 10 -5 0
-10 -4 -10 -10z"/>
<path d="M9055 1770 c3 -5 8 -10 11 -10 2 0 4 5 4 10 0 6 -5 10 -11 10 -5 0
-7 -4 -4 -10z"/>
<path d="M8745 1620 c-6 -9 11 -50 21 -50 2 0 0 9 -6 20 -6 11 -8 25 -5 30 3
6 4 10 1 10 -3 0 -8 -4 -11 -10z"/>
<path d="M8957 1607 c-4 -10 -7 -23 -7 -28 0 -15 27 -10 34 7 3 8 2 12 -3 9
-5 -3 -11 3 -13 12 -3 17 -4 17 -11 0z"/>
<path d="M10632 1460 c0 -14 2 -19 5 -12 2 6 2 18 0 25 -3 6 -5 1 -5 -13z"/>
<path d="M10131 1394 c0 -11 3 -14 6 -6 3 7 2 16 -1 19 -3 4 -6 -2 -5 -13z"/>
<path d="M10147 1373 c-3 -5 -2 -15 2 -22 7 -10 10 -10 16 -1 4 6 3 16 -3 22
-5 5 -12 6 -15 1z"/>
<path d="M8601 1345 c3 -14 13 -21 34 -22 17 -1 23 0 15 4 -8 3 -23 13 -34 22
-17 15 -18 15 -15 -4z"/>
<path d="M8467 1324 c-3 -6 -1 -30 5 -54 9 -33 9 -45 0 -48 -14 -4 -16 -22 -3
-22 5 0 24 12 41 26 28 24 29 28 15 43 -8 9 -23 27 -34 40 -10 13 -21 20 -24
15z"/>
<path d="M10130 1318 c0 -8 7 -15 15 -15 18 0 15 19 -3 25 -7 2 -12 -3 -12
-10z"/>
<path d="M6340 1294 c0 -8 11 -14 25 -14 14 0 25 4 25 9 0 5 -11 11 -25 13
-17 4 -25 1 -25 -8z"/>
<path d="M6658 1303 c7 -3 16 -2 19 1 4 3 -2 6 -13 5 -11 0 -14 -3 -6 -6z"/>
<path d="M6705 1300 c-3 -4 12 -10 33 -14 48 -8 67 -8 59 0 -10 11 -87 22 -92
14z"/>
<path d="M10187 1297 c-6 -15 29 -41 37 -28 3 5 -3 16 -13 25 -15 14 -20 14
-24 3z"/>
<path d="M6290 1270 c0 -5 6 -10 14 -10 8 0 18 5 21 10 3 6 -3 10 -14 10 -12
0 -21 -4 -21 -10z"/>
<path d="M10120 1264 c0 -8 5 -12 10 -9 6 3 10 10 10 16 0 5 -4 9 -10 9 -5 0
-10 -7 -10 -16z"/>
<path d="M8615 1131 c-6 -5 -21 -11 -35 -14 -18 -3 -14 -5 13 -6 21 0 36 3 33
8 -4 5 0 12 6 14 7 3 8 6 3 6 -6 1 -15 -3 -20 -8z"/>
<path d="M8824 1126 c-4 -10 -16 -22 -28 -26 -20 -8 -20 -9 -1 -9 20 -1 52 36
41 46 -3 3 -9 -2 -12 -11z"/>
<path d="M10250 1130 c0 -5 5 -10 10 -10 6 0 10 5 10 10 0 6 -4 10 -10 10 -5
0 -10 -4 -10 -10z"/>
<path d="M9010 1085 c-23 -24 -23 -25 -3 -25 13 0 23 8 26 22 9 31 4 32 -23 3z"/>
<path d="M8738 1093 c7 -3 16 -2 19 1 4 3 -2 6 -13 5 -11 0 -14 -3 -6 -6z"/>
<path d="M10703 1055 c0 -22 2 -30 4 -17 2 12 2 30 0 40 -3 9 -5 -1 -4 -23z"/>
<path d="M8888 1073 c7 -3 16 -2 19 1 4 3 -2 6 -13 5 -11 0 -14 -3 -6 -6z"/>
<path d="M11373 1068 c2 -7 10 -13 17 -13 7 0 15 6 18 13 2 7 -5 12 -18 12
-13 0 -20 -5 -17 -12z"/>
<path d="M4845 1060 l30 -7 -30 -5 -30 -5 33 -2 c22 -1 32 3 32 14 0 10 -10
15 -32 14 l-33 -1 30 -8z"/>
<path d="M4785 1050 c3 -5 8 -10 11 -10 2 0 4 5 4 10 0 6 -5 10 -11 10 -5 0
-7 -4 -4 -10z"/>
<path d="M7200 1051 c0 -10 96 -111 107 -111 6 0 -4 12 -49 64 -10 11 -18 23
-18 28 0 4 -9 12 -20 18 -11 6 -20 7 -20 1z"/>
<path d="M9108 1053 c6 -2 18 -2 25 0 6 3 1 5 -13 5 -14 0 -19 -2 -12 -5z"/>
<path d="M5113 1043 c15 -2 37 -2 50 0 12 2 0 4 -28 4 -27 0 -38 -2 -22 -4z"/>
<path d="M11395 1030 c-3 -5 1 -10 9 -10 9 0 16 5 16 10 0 6 -4 10 -9 10 -6 0
-13 -4 -16 -10z"/>
<path d="M10340 1020 c0 -5 5 -10 11 -10 5 0 7 5 4 10 -3 6 -8 10 -11 10 -2 0
-4 -4 -4 -10z"/>
<path d="M10160 997 c0 -10 -4 -15 -10 -12 -5 3 -10 0 -10 -8 0 -8 9 -17 20
-20 22 -6 27 16 10 43 -8 13 -10 12 -10 -3z"/>
<path d="M7532 970 c0 -14 2 -19 5 -12 2 6 2 18 0 25 -3 6 -5 1 -5 -13z"/>
<path d="M10361 964 c0 -11 3 -14 6 -6 3 7 2 16 -1 19 -3 4 -6 -2 -5 -13z"/>
<path d="M10150 921 c0 -18 15 -19 40 -5 l25 13 -32 1 c-18 0 -33 -4 -33 -9z"/>
<path d="M10273 914 c21 -7 23 -24 1 -24 -8 0 -12 -4 -9 -10 11 -18 32 -10 31
12 -1 15 -8 23 -21 25 -16 1 -16 1 -2 -3z"/>
<path d="M0 879 c0 -5 19 -9 42 -9 49 0 47 5 -4 13 -21 3 -38 2 -38 -4z"/>
<path d="M496 861 c41 -10 56 -20 48 -33 -4 -6 26 -9 87 -8 52 1 146 0 209 -2
73 -3 97 -2 67 3 -67 10 -71 19 -9 19 28 0 54 5 58 12 5 8 -12 9 -67 5 -41 -4
-103 -9 -139 -11 -53 -3 -57 -2 -20 4 43 7 42 7 -25 9 -38 2 -108 4 -155 6
-52 2 -73 0 -54 -4z"/>
<path d="M1120 859 c-47 -3 -72 -6 -56 -7 23 -2 26 -5 17 -16 -8 -9 -8 -16 -2
-20 12 -8 291 1 299 9 3 3 -54 5 -126 5 -81 0 -132 4 -132 10 0 6 37 10 92 10
50 0 89 2 87 4 -9 8 -99 11 -179 5z"/>
<path d="M9495 850 c-3 -5 -1 -10 4 -10 6 0 11 5 11 10 0 6 -2 10 -4 10 -3 0
-8 -4 -11 -10z"/>
<path d="M10310 850 c0 -5 5 -10 11 -10 5 0 7 5 4 10 -3 6 -8 10 -11 10 -2 0
-4 -4 -4 -10z"/>
<path d="M210 830 l-215 -6 270 -1 c149 0 257 3 240 7 -16 4 -41 7 -55 7 -14
-1 -122 -4 -240 -7z"/>
<path d="M9572 810 c7 -10 14 -18 15 -16 6 6 -9 36 -18 36 -5 0 -4 -9 3 -20z"/>
<path d="M2040 810 c-11 -7 -4 -10 25 -10 29 0 36 3 25 10 -8 5 -19 10 -25 10
-5 0 -17 -5 -25 -10z"/>
<path d="M2328 813 c6 -2 18 -2 25 0 6 3 1 5 -13 5 -14 0 -19 -2 -12 -5z"/>
<path d="M9380 805 c-8 -9 -8 -15 -2 -15 12 0 26 19 19 26 -2 2 -10 -2 -17
-11z"/>
<path d="M1068 773 c6 -2 18 -2 25 0 6 3 1 5 -13 5 -14 0 -19 -2 -12 -5z"/>
<path d="M1288 773 c6 -2 18 -2 25 0 6 3 1 5 -13 5 -14 0 -19 -2 -12 -5z"/>
<path d="M2008 743 c12 -2 30 -2 40 0 9 3 -1 5 -23 4 -22 0 -30 -2 -17 -4z"/>
<path d="M11190 731 c-50 -9 -55 -41 -6 -41 22 0 36 -5 36 -12 1 -16 29 32 30
50 0 13 -4 13 -60 3z"/>
<path d="M8036 639 c-2 -8 -7 -44 -10 -81 -6 -76 -10 -72 90 -83 l61 -7 7 48
c3 26 6 61 6 79 0 30 -3 33 -42 39 -24 4 -58 9 -75 12 -23 4 -34 2 -37 -7z
m134 -28 c3 -5 3 -34 2 -65 l-4 -56 -38 0 c-21 0 -50 4 -64 10 -23 8 -26 15
-26 54 0 74 5 79 69 72 30 -4 58 -11 61 -15z"/>
<path d="M8080 561 c0 -28 3 -31 31 -31 27 0 30 3 27 28 -2 21 -9 28 -30 30
-25 3 -28 0 -28 -27z"/>
<path d="M11210 615 c-14 -16 -10 -18 14 -9 9 3 16 10 16 15 0 14 -16 11 -30
-6z"/>
<path d="M8245 606 c-16 -12 -17 -16 -6 -30 7 -9 20 -16 28 -16 13 0 13 2 2
17 -11 13 -11 17 -1 20 13 5 17 23 4 23 -5 0 -17 -6 -27 -14z"/>
<path d="M11165 600 c4 -6 11 -8 16 -5 14 9 11 15 -7 15 -8 0 -12 -5 -9 -10z"/>
<path d="M11265 600 c-19 -8 -19 -9 3 -9 12 -1 22 4 22 9 0 6 -1 10 -2 9 -2 0
-12 -4 -23 -9z"/>
<path d="M8320 592 c0 -4 6 -14 12 -20 10 -10 10 -17 0 -32 -6 -11 -12 -33
-12 -49 0 -16 -7 -34 -15 -41 -19 -16 -20 -50 -1 -50 17 0 26 22 26 61 0 19 5
29 15 29 12 0 15 -13 15 -61 0 -50 2 -59 13 -50 10 8 19 7 33 -4 10 -8 27 -15
37 -15 25 0 77 38 77 56 0 20 -12 17 -42 -11 -35 -32 -42 -32 -72 8 -31 40
-32 54 -8 81 23 25 19 106 -4 106 -16 0 -17 -5 -5 -29 11 -20 -2 -47 -18 -37
-6 4 -11 15 -11 25 0 18 -18 41 -32 41 -4 0 -8 -4 -8 -8z"/>
<path d="M8506 563 c7 -27 1 -28 -50 -8 -14 6 -17 4 -14 -6 3 -8 17 -16 33
-19 37 -7 43 -27 11 -40 -16 -6 -26 -17 -26 -30 0 -26 11 -25 43 3 23 19 27
31 27 75 0 40 -4 52 -15 52 -12 0 -14 -7 -9 -27z"/>
<path d="M8566 535 c-16 -119 -16 -119 90 -130 l61 -7 6 39 c4 21 7 57 7 79 0
46 5 43 -111 59 l-46 7 -7 -47z m145 3 c5 -7 7 -19 4 -26 -3 -8 -5 -31 -5 -53
0 -38 -1 -39 -34 -39 -18 0 -48 3 -65 6 -31 6 -31 7 -31 72 l0 65 61 -6 c35
-3 65 -11 70 -19z"/>
<path d="M8615 501 c-9 -29 1 -41 36 -41 27 0 30 3 27 28 -4 35 -52 45 -63 13z"/>
<path d="M5810 505 c-43 -17 -53 -18 -45 -5 4 6 -1 7 -11 3 -13 -5 -14 -8 -4
-11 9 -3 5 -9 -11 -18 -39 -22 2 -17 49 6 22 11 46 20 52 20 5 0 10 5 10 10 0
6 -1 10 -2 9 -2 0 -19 -7 -38 -14z"/>
<path d="M8222 470 c0 -14 2 -19 5 -12 2 6 2 18 0 25 -3 6 -5 1 -5 -13z"/>
<path d="M8120 425 c0 -11 8 -13 30 -8 19 3 30 1 30 -6 0 -6 5 -11 10 -11 25
0 7 28 -21 34 -45 9 -49 8 -49 -9z"/>
<path d="M8017 372 c-6 -54 -3 -62 24 -62 11 0 33 -10 49 -21 26 -20 51 -27
105 -32 11 -1 25 -5 31 -9 16 -11 25 80 11 104 -15 24 -23 23 -30 -3 -5 -18
-11 -21 -36 -16 -18 4 -31 2 -31 -3 0 -6 13 -10 28 -10 16 0 37 -6 48 -14 18
-14 18 -15 1 -21 -9 -4 -38 -3 -65 1 l-47 9 -3 52 c-3 48 -5 53 -30 59 -15 3
-32 7 -38 9 -7 2 -14 -15 -17 -43z m66 1 c9 -9 -22 -43 -40 -43 -7 0 -13 11
-13 25 0 20 5 25 23 25 13 0 27 -3 30 -7z"/>
<path d="M8240 390 c0 -5 7 -10 15 -10 8 0 15 5 15 10 0 6 -7 10 -15 10 -8 0
-15 -4 -15 -10z"/>
<path d="M8560 351 c0 -34 27 -49 59 -32 31 17 36 -5 6 -31 -17 -15 -25 -31
-24 -52 0 -17 3 -24 6 -16 3 8 19 29 35 46 36 38 36 77 -1 82 -13 2 -28 -1
-34 -7 -19 -19 -29 -12 -23 14 5 18 2 25 -9 25 -10 0 -15 -10 -15 -29z"/>
<path d="M8269 329 c0 -13 -1 -55 -2 -94 l-2 -70 88 -8 c49 -5 90 -7 92 -5 2
1 5 42 7 90 4 102 9 96 -104 105 -77 6 -78 6 -79 -18z"/>
<path d="M8480 310 c0 -32 1 -33 17 -17 16 16 16 18 0 34 -16 16 -17 15 -17
-17z"/>
<path d="M8700 305 c0 -14 5 -25 10 -25 6 0 10 11 10 25 0 14 -4 25 -10 25 -5
0 -10 -11 -10 -25z"/>
<path d="M8011 247 c-1 -33 20 -44 55 -28 22 10 23 14 13 33 l-12 22 -8 -22
c-11 -28 -27 -28 -39 1 -8 21 -9 21 -9 -6z"/>
<path d="M8530 251 c0 -5 7 -14 15 -21 13 -10 15 -9 15 9 0 12 -6 21 -15 21
-8 0 -15 -4 -15 -9z"/>
<path d="M8478 234 c-5 -4 -8 -23 -8 -43 0 -25 3 -32 11 -24 6 6 9 25 7 43 -2
17 -6 28 -10 24z"/>
<path d="M8650 217 c0 -13 -5 -28 -10 -33 -10 -10 -3 -74 9 -74 13 0 31 60 25
84 -5 22 -3 26 15 26 12 0 21 5 21 10 0 6 -13 10 -30 10 -25 0 -30 -4 -30 -23z"/>
<path d="M8130 192 c0 -18 6 -22 29 -22 16 0 35 8 42 17 13 15 11 16 -17 10
-18 -3 -36 -1 -43 6 -8 8 -11 6 -11 -11z"/>
<path d="M8045 160 c-3 -5 -16 -10 -28 -11 -12 0 -16 -3 -9 -6 19 -8 102 7
102 18 0 12 -57 12 -65 -1z"/>
<path d="M8550 155 c-7 -8 -21 -15 -32 -15 -12 0 -22 -9 -25 -21 -4 -16 -11
-19 -29 -15 -22 6 -24 3 -24 -34 0 -45 -24 -56 -40 -18 -8 20 -9 19 -9 -12
l-1 -35 55 -2 c48 -2 55 0 55 16 0 33 11 51 32 51 33 0 58 -19 58 -45 0 -24 3
-25 55 -25 53 0 55 1 55 26 0 18 -4 25 -14 21 -8 -3 -24 6 -37 19 -13 14 -29
22 -37 19 -21 -8 -35 4 -22 20 7 8 7 21 0 39 -11 30 -22 33 -40 11z m9 -49 c9
-11 9 -15 -1 -18 -21 -7 -48 3 -48 18 0 18 34 18 49 0z m-74 -46 c3 -5 -1 -10
-9 -10 -9 0 -16 5 -16 10 0 6 4 10 9 10 6 0 13 -4 16 -10z m150 -20 c3 -5 -1
-10 -9 -10 -9 0 -16 5 -16 10 0 6 4 10 9 10 6 0 13 -4 16 -10z"/>
<path d="M8197 144 c-3 -3 -13 -7 -24 -9 -29 -6 -29 -6 -8 -14 15 -6 22 -21
26 -57 5 -40 7 -45 14 -26 4 12 11 22 16 22 14 0 10 66 -4 79 -8 6 -16 8 -20
5z"/>
<path d="M8255 140 c-3 -5 1 -10 9 -10 9 0 16 5 16 10 0 6 -4 10 -9 10 -6 0
-13 -4 -16 -10z"/>
<path d="M8000 91 c0 -9 -3 -33 -6 -53 -4 -24 -3 -38 4 -38 6 0 12 19 14 43 3
40 4 42 33 39 89 -7 95 -10 96 -50 0 -34 1 -35 10 -12 21 53 11 64 -73 76 -69
9 -78 8 -78 -5z"/>
<path d="M8280 75 c-8 -20 -20 -41 -27 -47 -21 -17 -15 -28 16 -28 22 0 30 6
35 25 4 17 14 25 29 26 l22 0 -22 9 c-13 6 -23 18 -23 30 0 31 -15 24 -30 -15z"/>
<path d="M8046 43 c-3 -3 -6 -15 -6 -25 0 -13 8 -18 30 -18 25 0 30 4 30 23 0
17 -6 23 -24 25 -13 1 -26 -1 -30 -5z"/>
</g>
</svg>
