<?xml version="1.0" standalone="no"?>
<!DOCTYPE svg PUBLIC "-//W3C//DTD SVG 20010904//EN"
 "http://www.w3.org/TR/2001/REC-SVG-20010904/DTD/svg10.dtd">
<svg version="1.0" xmlns="http://www.w3.org/2000/svg"
 width="48.000000pt" height="48.000000pt" viewBox="0 0 48.000000 48.000000"
 preserveAspectRatio="xMidYMid meet">

<g transform="translate(0.000000,48.000000) scale(0.100000,-0.100000)"
fill="#000000" stroke="none">
<path d="M212 408 c-14 -14 -16 -52 -2 -43 6 3 13 -1 16 -10 6 -14 8 -14 19 1
15 21 35 10 35 -19 0 -12 11 -53 25 -92 20 -57 25 -64 26 -40 1 25 3 26 6 7 3
-13 -1 -30 -8 -38 -16 -19 -3 -31 19 -17 24 16 19 67 -12 114 -15 22 -31 60
-35 86 -5 25 -15 49 -22 54 -20 12 -53 11 -67 -3z"/>
<path d="M205 339 c-4 -6 -5 -12 -2 -15 2 -3 7 2 10 11 7 17 1 20 -8 4z"/>
<path d="M255 340 c3 -5 8 -10 11 -10 2 0 4 5 4 10 0 6 -5 10 -11 10 -5 0 -7
-4 -4 -10z"/>
<path d="M172 257 c-18 -29 -32 -57 -32 -62 1 -18 59 -79 67 -71 5 4 -4 18
-19 30 -28 22 -37 59 -17 72 12 7 42 74 37 80 -2 2 -18 -20 -36 -49z"/>
<path d="M207 93 c3 -8 22 -13 44 -13 25 0 39 5 39 13 0 8 -15 12 -44 12 -31
0 -42 -4 -39 -12z"/>
</g>
</svg>
